<mxfile host="www.draw.io" modified="2019-10-14T15:03:40.264Z" agent="Mozilla/5.0 (X11; Linux x86_64) AppleWebKit/537.36 (KHTML, like Gecko) Chrome/76.0.3809.100 Safari/537.36" etag="Bi-Owlj72BPq4t-4NTsG" version="12.1.1" type="github" pages="1">
  <diagram id="8SGn0uwzpxdWffMQyQwH" name="Page-1">
    <mxGraphModel dx="1233" dy="596" grid="0" gridSize="10" guides="1" tooltips="1" connect="1" arrows="1" fold="1" page="1" pageScale="1" pageWidth="3000" pageHeight="2000" math="0" shadow="0">
      <root>
        <mxCell id="0"/>
        <mxCell id="1" parent="0"/>
        <mxCell id="F7OsiUGCp_ZEBV26uQ6v-84" value="" style="rounded=0;whiteSpace=wrap;html=1;fillColor=#E3F7FC;strokeColor=#6c8ebf;" parent="1" vertex="1">
          <mxGeometry x="539" y="555.5" width="2151" height="1132" as="geometry"/>
        </mxCell>
        <mxCell id="tBb4zAf8TB9KE755ws01-25" style="edgeStyle=orthogonalEdgeStyle;rounded=0;orthogonalLoop=1;jettySize=auto;html=1;dashed=1;endArrow=open;endFill=0;" edge="1" parent="1" source="xtL2kWmSyxpHTdPQ7wfy-1" target="F7OsiUGCp_ZEBV26uQ6v-64">
          <mxGeometry relative="1" as="geometry"/>
        </mxCell>
        <mxCell id="xtL2kWmSyxpHTdPQ7wfy-1" value="&lt;font style=&quot;font-size: 14px&quot;&gt;Start Game&lt;/font&gt;" style="ellipse;whiteSpace=wrap;html=1;" parent="1" vertex="1">
          <mxGeometry x="742.5" y="897.5" width="140" height="70" as="geometry"/>
        </mxCell>
        <mxCell id="F7OsiUGCp_ZEBV26uQ6v-24" style="edgeStyle=orthogonalEdgeStyle;rounded=0;orthogonalLoop=1;jettySize=auto;html=1;endArrow=none;endFill=0;" parent="1" target="xtL2kWmSyxpHTdPQ7wfy-1" edge="1">
          <mxGeometry relative="1" as="geometry">
            <mxPoint x="420" y="1001.5" as="sourcePoint"/>
            <mxPoint x="685" y="932.5" as="targetPoint"/>
            <Array as="points">
              <mxPoint x="580" y="1001.5"/>
              <mxPoint x="580" y="932.5"/>
            </Array>
          </mxGeometry>
        </mxCell>
        <mxCell id="7jCAE_AmfTAzwsMBU4Vr-1" value="&lt;font style=&quot;font-size: 14px&quot;&gt;Actor&lt;/font&gt;" style="shape=umlActor;verticalLabelPosition=bottom;labelBackgroundColor=#ffffff;verticalAlign=top;html=1;" parent="1" vertex="1">
          <mxGeometry x="345" y="946" width="60" height="120" as="geometry"/>
        </mxCell>
        <mxCell id="F7OsiUGCp_ZEBV26uQ6v-41" style="edgeStyle=orthogonalEdgeStyle;rounded=0;orthogonalLoop=1;jettySize=auto;html=1;endArrow=block;endFill=0;" parent="1" source="7jCAE_AmfTAzwsMBU4Vr-4" edge="1">
          <mxGeometry relative="1" as="geometry">
            <mxPoint x="2405" y="967.5" as="targetPoint"/>
            <Array as="points">
              <mxPoint x="2315" y="1007.5"/>
              <mxPoint x="2405" y="1007.5"/>
            </Array>
          </mxGeometry>
        </mxCell>
        <mxCell id="7jCAE_AmfTAzwsMBU4Vr-4" value="&lt;span style=&quot;font-size: 14px&quot;&gt;Basic&lt;br&gt;Zombie&lt;br&gt;&lt;/span&gt;" style="ellipse;whiteSpace=wrap;html=1;" parent="1" vertex="1">
          <mxGeometry x="2245" y="1022.5" width="140" height="70" as="geometry"/>
        </mxCell>
        <mxCell id="F7OsiUGCp_ZEBV26uQ6v-35" style="edgeStyle=orthogonalEdgeStyle;rounded=0;orthogonalLoop=1;jettySize=auto;html=1;entryX=0.5;entryY=1;entryDx=0;entryDy=0;endArrow=block;endFill=0;" parent="1" source="7jCAE_AmfTAzwsMBU4Vr-7" target="7jCAE_AmfTAzwsMBU4Vr-8" edge="1">
          <mxGeometry relative="1" as="geometry"/>
        </mxCell>
        <mxCell id="7jCAE_AmfTAzwsMBU4Vr-7" value="Peashooter" style="ellipse;whiteSpace=wrap;html=1;" parent="1" vertex="1">
          <mxGeometry x="1789.7856794084819" y="1037.5" width="140" height="70" as="geometry"/>
        </mxCell>
        <mxCell id="tBb4zAf8TB9KE755ws01-32" style="edgeStyle=orthogonalEdgeStyle;rounded=0;orthogonalLoop=1;jettySize=auto;html=1;dashed=1;endArrow=open;endFill=0;" edge="1" parent="1" source="7jCAE_AmfTAzwsMBU4Vr-8" target="F7OsiUGCp_ZEBV26uQ6v-86">
          <mxGeometry relative="1" as="geometry"/>
        </mxCell>
        <mxCell id="7jCAE_AmfTAzwsMBU4Vr-8" value="&lt;span style=&quot;font-size: 14px&quot;&gt;Select Plants&lt;/span&gt;" style="ellipse;whiteSpace=wrap;html=1;" parent="1" vertex="1">
          <mxGeometry x="1695" y="897.5" width="140" height="70" as="geometry"/>
        </mxCell>
        <mxCell id="tBb4zAf8TB9KE755ws01-29" style="edgeStyle=orthogonalEdgeStyle;rounded=0;orthogonalLoop=1;jettySize=auto;html=1;entryX=1;entryY=0.5;entryDx=0;entryDy=0;dashed=1;endArrow=open;endFill=0;" edge="1" parent="1" source="7jCAE_AmfTAzwsMBU4Vr-9" target="F7OsiUGCp_ZEBV26uQ6v-64">
          <mxGeometry relative="1" as="geometry"/>
        </mxCell>
        <mxCell id="tBb4zAf8TB9KE755ws01-30" style="edgeStyle=orthogonalEdgeStyle;rounded=0;orthogonalLoop=1;jettySize=auto;html=1;dashed=1;endArrow=open;endFill=0;" edge="1" parent="1" source="7jCAE_AmfTAzwsMBU4Vr-9" target="7jCAE_AmfTAzwsMBU4Vr-8">
          <mxGeometry relative="1" as="geometry"/>
        </mxCell>
        <mxCell id="7jCAE_AmfTAzwsMBU4Vr-9" value="&lt;font style=&quot;font-size: 14px&quot;&gt;Play level&lt;/font&gt;" style="ellipse;whiteSpace=wrap;html=1;" parent="1" vertex="1">
          <mxGeometry x="1330" y="897.5" width="140" height="70" as="geometry"/>
        </mxCell>
        <mxCell id="tBb4zAf8TB9KE755ws01-15" style="edgeStyle=orthogonalEdgeStyle;rounded=0;orthogonalLoop=1;jettySize=auto;html=1;entryX=0;entryY=0.5;entryDx=0;entryDy=0;dashed=1;endArrow=open;endFill=0;" edge="1" parent="1" source="7jCAE_AmfTAzwsMBU4Vr-13" target="7jCAE_AmfTAzwsMBU4Vr-18">
          <mxGeometry relative="1" as="geometry">
            <Array as="points">
              <mxPoint x="2205" y="932.5"/>
            </Array>
          </mxGeometry>
        </mxCell>
        <mxCell id="tBb4zAf8TB9KE755ws01-16" style="edgeStyle=orthogonalEdgeStyle;rounded=0;orthogonalLoop=1;jettySize=auto;html=1;entryX=1;entryY=0.5;entryDx=0;entryDy=0;dashed=1;endArrow=open;endFill=0;" edge="1" parent="1" source="7jCAE_AmfTAzwsMBU4Vr-13" target="F7OsiUGCp_ZEBV26uQ6v-86">
          <mxGeometry relative="1" as="geometry">
            <Array as="points">
              <mxPoint x="2185" y="932.5"/>
            </Array>
          </mxGeometry>
        </mxCell>
        <mxCell id="7jCAE_AmfTAzwsMBU4Vr-13" value="&lt;span style=&quot;font-size: 14px&quot;&gt;Fight&lt;br&gt;&lt;/span&gt;" style="ellipse;whiteSpace=wrap;html=1;" parent="1" vertex="1">
          <mxGeometry x="2135" y="1222.5" width="140" height="70" as="geometry"/>
        </mxCell>
        <mxCell id="7jCAE_AmfTAzwsMBU4Vr-18" value="&lt;span style=&quot;font-size: 14px&quot;&gt;Approaching&lt;br&gt;zombies&lt;br&gt;&lt;/span&gt;" style="ellipse;whiteSpace=wrap;html=1;" parent="1" vertex="1">
          <mxGeometry x="2334.900146484375" y="897.5" width="140" height="70" as="geometry"/>
        </mxCell>
        <mxCell id="F7OsiUGCp_ZEBV26uQ6v-37" style="edgeStyle=orthogonalEdgeStyle;rounded=0;orthogonalLoop=1;jettySize=auto;html=1;entryX=0.5;entryY=1;entryDx=0;entryDy=0;endArrow=block;endFill=0;" parent="1" source="7jCAE_AmfTAzwsMBU4Vr-31" target="7jCAE_AmfTAzwsMBU4Vr-8" edge="1">
          <mxGeometry relative="1" as="geometry">
            <Array as="points">
              <mxPoint x="1675" y="1122.5"/>
              <mxPoint x="1765" y="1122.5"/>
            </Array>
          </mxGeometry>
        </mxCell>
        <mxCell id="7jCAE_AmfTAzwsMBU4Vr-31" value="Cherrybomb" style="ellipse;whiteSpace=wrap;html=1;" parent="1" vertex="1">
          <mxGeometry x="1604.7856794084819" y="1137.5" width="140" height="70" as="geometry"/>
        </mxCell>
        <mxCell id="F7OsiUGCp_ZEBV26uQ6v-34" style="edgeStyle=orthogonalEdgeStyle;rounded=0;orthogonalLoop=1;jettySize=auto;html=1;endArrow=block;endFill=0;" parent="1" source="7jCAE_AmfTAzwsMBU4Vr-32" target="7jCAE_AmfTAzwsMBU4Vr-8" edge="1">
          <mxGeometry relative="1" as="geometry"/>
        </mxCell>
        <mxCell id="7jCAE_AmfTAzwsMBU4Vr-32" value="Sunflower" style="ellipse;whiteSpace=wrap;html=1;" parent="1" vertex="1">
          <mxGeometry x="1613.7856794084819" y="1037.5" width="140" height="70" as="geometry"/>
        </mxCell>
        <mxCell id="F7OsiUGCp_ZEBV26uQ6v-39" style="edgeStyle=orthogonalEdgeStyle;rounded=0;orthogonalLoop=1;jettySize=auto;html=1;entryX=0.5;entryY=1;entryDx=0;entryDy=0;endArrow=block;endFill=0;" parent="1" target="7jCAE_AmfTAzwsMBU4Vr-8" edge="1">
          <mxGeometry relative="1" as="geometry">
            <Array as="points">
              <mxPoint x="1850" y="1122.5"/>
              <mxPoint x="1765" y="1122.5"/>
            </Array>
            <mxPoint x="1849.7856794084819" y="1137.5" as="sourcePoint"/>
          </mxGeometry>
        </mxCell>
        <mxCell id="7jCAE_AmfTAzwsMBU4Vr-33" value="Walnut" style="ellipse;whiteSpace=wrap;html=1;" parent="1" vertex="1">
          <mxGeometry x="1789.7856794084819" y="1137.5" width="140" height="70" as="geometry"/>
        </mxCell>
        <mxCell id="F7OsiUGCp_ZEBV26uQ6v-42" style="edgeStyle=orthogonalEdgeStyle;rounded=0;orthogonalLoop=1;jettySize=auto;html=1;endArrow=block;endFill=0;" parent="1" source="7jCAE_AmfTAzwsMBU4Vr-36" edge="1">
          <mxGeometry relative="1" as="geometry">
            <mxPoint x="2405.0000000000005" y="967.5" as="targetPoint"/>
            <Array as="points">
              <mxPoint x="2495" y="1007.5"/>
              <mxPoint x="2405" y="1007.5"/>
            </Array>
          </mxGeometry>
        </mxCell>
        <mxCell id="7jCAE_AmfTAzwsMBU4Vr-36" value="&lt;span style=&quot;font-size: 14px&quot;&gt;Buckethead&lt;br&gt;Zombie&lt;br&gt;&lt;/span&gt;" style="ellipse;whiteSpace=wrap;html=1;" parent="1" vertex="1">
          <mxGeometry x="2425" y="1022.5" width="140" height="70" as="geometry"/>
        </mxCell>
        <mxCell id="F7OsiUGCp_ZEBV26uQ6v-40" style="edgeStyle=orthogonalEdgeStyle;rounded=0;orthogonalLoop=1;jettySize=auto;html=1;entryX=0.5;entryY=1;entryDx=0;entryDy=0;endArrow=block;endFill=0;" parent="1" source="7jCAE_AmfTAzwsMBU4Vr-37" target="7jCAE_AmfTAzwsMBU4Vr-18" edge="1">
          <mxGeometry relative="1" as="geometry">
            <Array as="points">
              <mxPoint x="2405" y="1030.5"/>
            </Array>
          </mxGeometry>
        </mxCell>
        <mxCell id="7jCAE_AmfTAzwsMBU4Vr-37" value="&lt;span style=&quot;font-size: 14px&quot;&gt;Conehead&lt;br&gt;Zombie&lt;br&gt;&lt;/span&gt;" style="ellipse;whiteSpace=wrap;html=1;" parent="1" vertex="1">
          <mxGeometry x="2335" y="1094.5" width="140" height="70" as="geometry"/>
        </mxCell>
        <mxCell id="F7OsiUGCp_ZEBV26uQ6v-69" style="edgeStyle=orthogonalEdgeStyle;rounded=0;orthogonalLoop=1;jettySize=auto;html=1;endArrow=open;endFill=0;dashed=1;" parent="1" source="7jCAE_AmfTAzwsMBU4Vr-40" target="7jCAE_AmfTAzwsMBU4Vr-32" edge="1">
          <mxGeometry relative="1" as="geometry">
            <mxPoint x="1559.7844683253406" y="1079.2058823529414" as="sourcePoint"/>
          </mxGeometry>
        </mxCell>
        <mxCell id="7jCAE_AmfTAzwsMBU4Vr-40" value="Produce suns" style="ellipse;whiteSpace=wrap;html=1;" parent="1" vertex="1">
          <mxGeometry x="1349.785679408482" y="1037.5" width="140" height="70" as="geometry"/>
        </mxCell>
        <mxCell id="tBb4zAf8TB9KE755ws01-18" style="edgeStyle=orthogonalEdgeStyle;rounded=0;orthogonalLoop=1;jettySize=auto;html=1;entryX=0.385;entryY=1;entryDx=0;entryDy=0;entryPerimeter=0;dashed=1;endArrow=open;endFill=0;" edge="1" parent="1" source="F7OsiUGCp_ZEBV26uQ6v-1" target="7jCAE_AmfTAzwsMBU4Vr-13">
          <mxGeometry relative="1" as="geometry"/>
        </mxCell>
        <mxCell id="F7OsiUGCp_ZEBV26uQ6v-1" value="&lt;span style=&quot;font-size: 14px&quot;&gt;Plants Win&lt;br&gt;&lt;/span&gt;" style="ellipse;whiteSpace=wrap;html=1;" parent="1" vertex="1">
          <mxGeometry x="2025" y="1379.5" width="140" height="70" as="geometry"/>
        </mxCell>
        <mxCell id="tBb4zAf8TB9KE755ws01-17" style="edgeStyle=orthogonalEdgeStyle;rounded=0;orthogonalLoop=1;jettySize=auto;html=1;dashed=1;endArrow=open;endFill=0;" edge="1" parent="1" source="F7OsiUGCp_ZEBV26uQ6v-2" target="7jCAE_AmfTAzwsMBU4Vr-13">
          <mxGeometry relative="1" as="geometry"/>
        </mxCell>
        <mxCell id="F7OsiUGCp_ZEBV26uQ6v-2" value="&lt;span style=&quot;font-size: 14px&quot;&gt;Zombies&lt;br&gt;win&lt;br&gt;&lt;/span&gt;" style="ellipse;whiteSpace=wrap;html=1;" parent="1" vertex="1">
          <mxGeometry x="2225" y="1379.5" width="140" height="70" as="geometry"/>
        </mxCell>
        <mxCell id="tBb4zAf8TB9KE755ws01-19" style="edgeStyle=orthogonalEdgeStyle;rounded=0;orthogonalLoop=1;jettySize=auto;html=1;entryX=0.575;entryY=1.005;entryDx=0;entryDy=0;entryPerimeter=0;dashed=1;endArrow=open;endFill=0;" edge="1" parent="1" source="F7OsiUGCp_ZEBV26uQ6v-7" target="F7OsiUGCp_ZEBV26uQ6v-2">
          <mxGeometry relative="1" as="geometry"/>
        </mxCell>
        <mxCell id="F7OsiUGCp_ZEBV26uQ6v-7" value="&lt;span style=&quot;font-size: 14px&quot;&gt;Retry level&lt;br&gt;&lt;/span&gt;" style="ellipse;whiteSpace=wrap;html=1;" parent="1" vertex="1">
          <mxGeometry x="2305" y="1522.5" width="140" height="70" as="geometry"/>
        </mxCell>
        <mxCell id="tBb4zAf8TB9KE755ws01-20" style="edgeStyle=orthogonalEdgeStyle;rounded=0;orthogonalLoop=1;jettySize=auto;html=1;entryX=0.5;entryY=1;entryDx=0;entryDy=0;dashed=1;endArrow=open;endFill=0;" edge="1" parent="1" source="F7OsiUGCp_ZEBV26uQ6v-8" target="F7OsiUGCp_ZEBV26uQ6v-2">
          <mxGeometry relative="1" as="geometry"/>
        </mxCell>
        <mxCell id="F7OsiUGCp_ZEBV26uQ6v-8" value="&lt;span style=&quot;font-size: 14px&quot;&gt;Exit game&lt;br&gt;&lt;/span&gt;" style="ellipse;whiteSpace=wrap;html=1;" parent="1" vertex="1">
          <mxGeometry x="2135" y="1522.5" width="140" height="70" as="geometry"/>
        </mxCell>
        <mxCell id="tBb4zAf8TB9KE755ws01-21" style="edgeStyle=orthogonalEdgeStyle;rounded=0;orthogonalLoop=1;jettySize=auto;html=1;dashed=1;endArrow=open;endFill=0;" edge="1" parent="1" source="F7OsiUGCp_ZEBV26uQ6v-9" target="F7OsiUGCp_ZEBV26uQ6v-1">
          <mxGeometry relative="1" as="geometry"/>
        </mxCell>
        <mxCell id="F7OsiUGCp_ZEBV26uQ6v-9" value="&lt;span style=&quot;font-size: 14px&quot;&gt;Upgrade level&lt;br&gt;&lt;/span&gt;" style="ellipse;whiteSpace=wrap;html=1;" parent="1" vertex="1">
          <mxGeometry x="1760" y="1458.5" width="140" height="70" as="geometry"/>
        </mxCell>
        <mxCell id="F7OsiUGCp_ZEBV26uQ6v-19" value="&lt;font style=&quot;font-size: 14px&quot;&gt;Existing User&lt;/font&gt;" style="shape=umlActor;verticalLabelPosition=bottom;labelBackgroundColor=#ffffff;verticalAlign=top;html=1;" parent="1" vertex="1">
          <mxGeometry x="420" y="1193" width="60" height="120" as="geometry"/>
        </mxCell>
        <mxCell id="F7OsiUGCp_ZEBV26uQ6v-45" style="edgeStyle=orthogonalEdgeStyle;rounded=0;orthogonalLoop=1;jettySize=auto;html=1;endArrow=open;endFill=0;dashed=1;" parent="1" source="F7OsiUGCp_ZEBV26uQ6v-20" target="7jCAE_AmfTAzwsMBU4Vr-13" edge="1">
          <mxGeometry relative="1" as="geometry"/>
        </mxCell>
        <mxCell id="F7OsiUGCp_ZEBV26uQ6v-20" value="&lt;span style=&quot;font-size: 14px&quot;&gt;Lawnmower&lt;br&gt;&lt;/span&gt;" style="ellipse;whiteSpace=wrap;html=1;" parent="1" vertex="1">
          <mxGeometry x="2464.5" y="1222.5" width="140" height="70" as="geometry"/>
        </mxCell>
        <mxCell id="nF_L7kz9bRN4xvWHO1O5-8" value="&lt;font style=&quot;font-size: 16px&quot;&gt;&amp;lt;&amp;lt; extend &amp;gt;&amp;gt;&lt;/font&gt;" style="text;html=1;resizable=0;points=[];autosize=1;align=left;verticalAlign=top;spacingTop=-4;" parent="1" vertex="1">
          <mxGeometry x="1449" y="721.7142333984375" width="110" height="20" as="geometry"/>
        </mxCell>
        <mxCell id="F7OsiUGCp_ZEBV26uQ6v-63" style="edgeStyle=orthogonalEdgeStyle;rounded=0;orthogonalLoop=1;jettySize=auto;html=1;entryX=0.5;entryY=0;entryDx=0;entryDy=0;endArrow=open;endFill=0;dashed=1;" parent="1" source="F7OsiUGCp_ZEBV26uQ6v-61" target="7jCAE_AmfTAzwsMBU4Vr-9" edge="1">
          <mxGeometry relative="1" as="geometry">
            <Array as="points">
              <mxPoint x="1400" y="748.5"/>
            </Array>
          </mxGeometry>
        </mxCell>
        <mxCell id="F7OsiUGCp_ZEBV26uQ6v-61" value="&lt;span style=&quot;font-size: 14px&quot;&gt;In-Game Menu&lt;br&gt;&lt;/span&gt;" style="ellipse;whiteSpace=wrap;html=1;" parent="1" vertex="1">
          <mxGeometry x="1604" y="713.5" width="140" height="70" as="geometry"/>
        </mxCell>
        <mxCell id="F7OsiUGCp_ZEBV26uQ6v-64" value="&lt;span style=&quot;font-size: 14px&quot;&gt;Load Level&lt;/span&gt;" style="ellipse;whiteSpace=wrap;html=1;" parent="1" vertex="1">
          <mxGeometry x="1030" y="897.5" width="140" height="70" as="geometry"/>
        </mxCell>
        <mxCell id="F7OsiUGCp_ZEBV26uQ6v-68" value="&lt;font style=&quot;font-size: 16px&quot;&gt;&amp;lt;&amp;lt; extend &amp;gt;&amp;gt;&lt;/font&gt;" style="text;html=1;resizable=0;points=[];autosize=1;align=left;verticalAlign=top;spacingTop=-4;" parent="1" vertex="1">
          <mxGeometry x="2295" y="1231.7142333984375" width="110" height="20" as="geometry"/>
        </mxCell>
        <mxCell id="F7OsiUGCp_ZEBV26uQ6v-70" value="&lt;font style=&quot;font-size: 16px&quot;&gt;&amp;lt;&amp;lt; include &amp;gt;&amp;gt;&lt;/font&gt;" style="text;html=1;resizable=0;points=[];autosize=1;align=left;verticalAlign=top;spacingTop=-4;" parent="1" vertex="1">
          <mxGeometry x="1504" y="1047.5" width="110" height="20" as="geometry"/>
        </mxCell>
        <mxCell id="F7OsiUGCp_ZEBV26uQ6v-72" value="" style="endArrow=block;html=1;endFill=1;" parent="1" edge="1">
          <mxGeometry width="50" height="50" relative="1" as="geometry">
            <mxPoint x="310" y="1175" as="sourcePoint"/>
            <mxPoint x="370" y="1095" as="targetPoint"/>
          </mxGeometry>
        </mxCell>
        <mxCell id="F7OsiUGCp_ZEBV26uQ6v-73" value="" style="endArrow=block;html=1;endFill=1;" parent="1" edge="1">
          <mxGeometry width="50" height="50" relative="1" as="geometry">
            <mxPoint x="440" y="1175" as="sourcePoint"/>
            <mxPoint x="380" y="1095" as="targetPoint"/>
          </mxGeometry>
        </mxCell>
        <mxCell id="F7OsiUGCp_ZEBV26uQ6v-81" value="&lt;font style=&quot;font-size: 14px&quot;&gt;New User&lt;/font&gt;" style="shape=umlActor;verticalLabelPosition=bottom;labelBackgroundColor=#ffffff;verticalAlign=top;html=1;" parent="1" vertex="1">
          <mxGeometry x="280" y="1193" width="60" height="120" as="geometry"/>
        </mxCell>
        <mxCell id="F7OsiUGCp_ZEBV26uQ6v-86" value="&lt;span style=&quot;font-size: 14px&quot;&gt;Place plants&lt;br&gt;on backyard&lt;br&gt;&lt;/span&gt;" style="ellipse;whiteSpace=wrap;html=1;" parent="1" vertex="1">
          <mxGeometry x="1950" y="897.5" width="140" height="70" as="geometry"/>
        </mxCell>
        <mxCell id="tBb4zAf8TB9KE755ws01-1" value="1..*" style="text;html=1;resizable=0;points=[];autosize=1;align=left;verticalAlign=top;spacingTop=-4;" vertex="1" parent="1">
          <mxGeometry x="420" y="975.5" width="30" height="20" as="geometry"/>
        </mxCell>
        <mxCell id="tBb4zAf8TB9KE755ws01-5" value="1" style="text;html=1;resizable=0;points=[];autosize=1;align=left;verticalAlign=top;spacingTop=-4;" vertex="1" parent="1">
          <mxGeometry x="727.5" y="912.5" width="20" height="20" as="geometry"/>
        </mxCell>
        <mxCell id="tBb4zAf8TB9KE755ws01-8" value="1..5" style="text;html=1;resizable=0;points=[];autosize=1;align=left;verticalAlign=top;spacingTop=-4;" vertex="1" parent="1">
          <mxGeometry x="1300" y="910.5" width="40" height="10" as="geometry"/>
        </mxCell>
        <mxCell id="tBb4zAf8TB9KE755ws01-10" value="1" style="text;html=1;resizable=0;points=[];autosize=1;align=left;verticalAlign=top;spacingTop=-4;" vertex="1" parent="1">
          <mxGeometry x="1010" y="910.5" width="20" height="20" as="geometry"/>
        </mxCell>
        <mxCell id="tBb4zAf8TB9KE755ws01-11" value="1" style="text;html=1;resizable=0;points=[];autosize=1;align=left;verticalAlign=top;spacingTop=-4;" vertex="1" parent="1">
          <mxGeometry x="1674" y="911.5" width="20" height="20" as="geometry"/>
        </mxCell>
        <mxCell id="tBb4zAf8TB9KE755ws01-34" value="Text" style="text;html=1;resizable=0;points=[];autosize=1;align=left;verticalAlign=top;spacingTop=-4;" vertex="1" parent="1">
          <mxGeometry x="1671" y="1073.5" width="40" height="20" as="geometry"/>
        </mxCell>
        <mxCell id="tBb4zAf8TB9KE755ws01-46" style="edgeStyle=orthogonalEdgeStyle;rounded=0;orthogonalLoop=1;jettySize=auto;html=1;endArrow=none;endFill=0;" edge="1" parent="1">
          <mxGeometry relative="1" as="geometry">
            <mxPoint x="581" y="1001.5" as="targetPoint"/>
            <mxPoint x="745.5" y="1086.5" as="sourcePoint"/>
          </mxGeometry>
        </mxCell>
        <mxCell id="tBb4zAf8TB9KE755ws01-39" value="&lt;span style=&quot;font-size: 14px&quot;&gt;Exit Game&lt;br&gt;&lt;/span&gt;" style="ellipse;whiteSpace=wrap;html=1;" vertex="1" parent="1">
          <mxGeometry x="747.5" y="1051.5" width="140" height="70" as="geometry"/>
        </mxCell>
        <mxCell id="tBb4zAf8TB9KE755ws01-53" style="edgeStyle=orthogonalEdgeStyle;rounded=0;orthogonalLoop=1;jettySize=auto;html=1;entryX=1;entryY=0.5;entryDx=0;entryDy=0;endArrow=block;endFill=0;" edge="1" parent="1" source="tBb4zAf8TB9KE755ws01-48" target="F7OsiUGCp_ZEBV26uQ6v-61">
          <mxGeometry relative="1" as="geometry"/>
        </mxCell>
        <mxCell id="tBb4zAf8TB9KE755ws01-48" value="&lt;span style=&quot;font-size: 14px&quot;&gt;Restart Level&lt;br&gt;&lt;/span&gt;" style="ellipse;whiteSpace=wrap;html=1;" vertex="1" parent="1">
          <mxGeometry x="1860" y="631.5" width="140" height="70" as="geometry"/>
        </mxCell>
        <mxCell id="tBb4zAf8TB9KE755ws01-54" style="edgeStyle=orthogonalEdgeStyle;rounded=0;orthogonalLoop=1;jettySize=auto;html=1;endArrow=none;endFill=0;" edge="1" parent="1" source="tBb4zAf8TB9KE755ws01-49">
          <mxGeometry relative="1" as="geometry">
            <mxPoint x="1790" y="748.5" as="targetPoint"/>
          </mxGeometry>
        </mxCell>
        <mxCell id="tBb4zAf8TB9KE755ws01-49" value="&lt;span style=&quot;font-size: 14px&quot;&gt;Resume Level&lt;br&gt;&lt;/span&gt;" style="ellipse;whiteSpace=wrap;html=1;" vertex="1" parent="1">
          <mxGeometry x="1860" y="713.5" width="140" height="70" as="geometry"/>
        </mxCell>
        <mxCell id="tBb4zAf8TB9KE755ws01-55" style="edgeStyle=orthogonalEdgeStyle;rounded=0;orthogonalLoop=1;jettySize=auto;html=1;endArrow=none;endFill=0;" edge="1" parent="1">
          <mxGeometry relative="1" as="geometry">
            <mxPoint x="1802" y="741.5" as="targetPoint"/>
            <mxPoint x="1867" y="826.5" as="sourcePoint"/>
            <Array as="points">
              <mxPoint x="1802" y="826.5"/>
            </Array>
          </mxGeometry>
        </mxCell>
        <mxCell id="tBb4zAf8TB9KE755ws01-50" value="&lt;span style=&quot;font-size: 14px&quot;&gt;Exit&lt;br&gt;&lt;/span&gt;" style="ellipse;whiteSpace=wrap;html=1;" vertex="1" parent="1">
          <mxGeometry x="1865" y="791.5" width="140" height="70" as="geometry"/>
        </mxCell>
        <mxCell id="tBb4zAf8TB9KE755ws01-57" value="&lt;font style=&quot;font-size: 16px&quot;&gt;&amp;lt;&amp;lt; include &amp;gt;&amp;gt;&lt;/font&gt;" style="text;html=1;resizable=0;points=[];autosize=1;align=left;verticalAlign=top;spacingTop=-4;" vertex="1" parent="1">
          <mxGeometry x="901.5" y="907.5" width="110" height="20" as="geometry"/>
        </mxCell>
        <mxCell id="tBb4zAf8TB9KE755ws01-58" value="&lt;font style=&quot;font-size: 16px&quot;&gt;&amp;lt;&amp;lt; include &amp;gt;&amp;gt;&lt;/font&gt;" style="text;html=1;resizable=0;points=[];autosize=1;align=left;verticalAlign=top;spacingTop=-4;" vertex="1" parent="1">
          <mxGeometry x="1190" y="907.5" width="110" height="20" as="geometry"/>
        </mxCell>
        <mxCell id="tBb4zAf8TB9KE755ws01-60" value="&lt;font style=&quot;font-size: 16px&quot;&gt;&amp;lt;&amp;lt; include &amp;gt;&amp;gt;&lt;/font&gt;" style="text;html=1;resizable=0;points=[];autosize=1;align=left;verticalAlign=top;spacingTop=-4;" vertex="1" parent="1">
          <mxGeometry x="1517" y="902.5" width="110" height="20" as="geometry"/>
        </mxCell>
        <mxCell id="tBb4zAf8TB9KE755ws01-61" value="&lt;font style=&quot;font-size: 16px&quot;&gt;&amp;lt;&amp;lt; include &amp;gt;&amp;gt;&lt;/font&gt;" style="text;html=1;resizable=0;points=[];autosize=1;align=left;verticalAlign=top;spacingTop=-4;" vertex="1" parent="1">
          <mxGeometry x="1845" y="905.5" width="110" height="20" as="geometry"/>
        </mxCell>
        <mxCell id="tBb4zAf8TB9KE755ws01-62" value="&lt;font style=&quot;font-size: 16px&quot;&gt;&amp;lt;&amp;lt; include &amp;gt;&amp;gt;&lt;/font&gt;" style="text;html=1;resizable=0;points=[];autosize=1;align=left;verticalAlign=top;spacingTop=-4;" vertex="1" parent="1">
          <mxGeometry x="2080" y="1121.5" width="110" height="20" as="geometry"/>
        </mxCell>
        <mxCell id="tBb4zAf8TB9KE755ws01-63" value="&lt;font style=&quot;font-size: 16px&quot;&gt;&amp;lt;&amp;lt; include &amp;gt;&amp;gt;&lt;/font&gt;" style="text;html=1;resizable=0;points=[];autosize=1;align=left;verticalAlign=top;spacingTop=-4;" vertex="1" parent="1">
          <mxGeometry x="2207.5" y="1121.5" width="110" height="20" as="geometry"/>
        </mxCell>
        <mxCell id="tBb4zAf8TB9KE755ws01-65" value="&lt;font style=&quot;font-size: 16px&quot;&gt;&amp;lt;&amp;lt; include &amp;gt;&amp;gt;&lt;/font&gt;" style="text;html=1;resizable=0;points=[];autosize=1;align=left;verticalAlign=top;spacingTop=-4;" vertex="1" parent="1">
          <mxGeometry x="2060" y="1313" width="110" height="20" as="geometry"/>
        </mxCell>
        <mxCell id="tBb4zAf8TB9KE755ws01-66" value="&lt;font style=&quot;font-size: 16px&quot;&gt;&amp;lt;&amp;lt; include &amp;gt;&amp;gt;&lt;/font&gt;" style="text;html=1;resizable=0;points=[];autosize=1;align=left;verticalAlign=top;spacingTop=-4;" vertex="1" parent="1">
          <mxGeometry x="2245" y="1313" width="110" height="20" as="geometry"/>
        </mxCell>
        <mxCell id="tBb4zAf8TB9KE755ws01-68" value="&lt;font style=&quot;font-size: 16px&quot;&gt;&amp;lt;&amp;lt; include &amp;gt;&amp;gt;&lt;/font&gt;" style="text;html=1;resizable=0;points=[];autosize=1;align=left;verticalAlign=top;spacingTop=-4;" vertex="1" parent="1">
          <mxGeometry x="2152.5" y="1458.5" width="110" height="20" as="geometry"/>
        </mxCell>
        <mxCell id="tBb4zAf8TB9KE755ws01-69" value="&lt;font style=&quot;font-size: 16px&quot;&gt;&amp;lt;&amp;lt; include &amp;gt;&amp;gt;&lt;/font&gt;" style="text;html=1;resizable=0;points=[];autosize=1;align=left;verticalAlign=top;spacingTop=-4;" vertex="1" parent="1">
          <mxGeometry x="2335" y="1458.5" width="110" height="20" as="geometry"/>
        </mxCell>
        <mxCell id="tBb4zAf8TB9KE755ws01-70" value="&lt;font style=&quot;font-size: 16px&quot;&gt;&amp;lt;&amp;lt; include &amp;gt;&amp;gt;&lt;/font&gt;" style="text;html=1;resizable=0;points=[];autosize=1;align=left;verticalAlign=top;spacingTop=-4;" vertex="1" parent="1">
          <mxGeometry x="1930" y="1468.5" width="110" height="20" as="geometry"/>
        </mxCell>
        <mxCell id="tBb4zAf8TB9KE755ws01-71" value="&lt;h2 style=&quot;white-space: nowrap&quot;&gt;&lt;font style=&quot;font-size: 72px&quot;&gt;&lt;b&gt;Plants Vs Zombies - Use Case Diagram&lt;/b&gt;&lt;/font&gt;&lt;/h2&gt;" style="text;html=1;strokeColor=none;fillColor=none;align=left;verticalAlign=middle;whiteSpace=wrap;rounded=0;" vertex="1" parent="1">
          <mxGeometry x="298" y="115.5" width="1439" height="158" as="geometry"/>
        </mxCell>
        <mxCell id="tBb4zAf8TB9KE755ws01-72" value="&lt;h2 style=&quot;white-space: nowrap&quot;&gt;&lt;font style=&quot;font-size: 48px&quot;&gt;&lt;b&gt;Made by :&lt;/b&gt;&lt;/font&gt;&lt;/h2&gt;" style="text;html=1;strokeColor=none;fillColor=none;align=center;verticalAlign=middle;whiteSpace=wrap;rounded=0;" vertex="1" parent="1">
          <mxGeometry x="280" y="259.5" width="259" height="72" as="geometry"/>
        </mxCell>
        <mxCell id="tBb4zAf8TB9KE755ws01-73" value="&lt;h2 style=&quot;white-space: nowrap&quot;&gt;&lt;font style=&quot;font-weight: normal ; font-size: 48px&quot;&gt;Abhinandan Kainth ( 2018001 )&lt;/font&gt;&lt;/h2&gt;&lt;div&gt;&lt;span style=&quot;font-size: 48px&quot;&gt;Anmol Kumar ( 2018382 )&lt;/span&gt;&lt;/div&gt;" style="text;html=1;strokeColor=none;fillColor=none;align=left;verticalAlign=middle;whiteSpace=wrap;rounded=0;" vertex="1" parent="1">
          <mxGeometry x="289" y="356" width="991" height="72" as="geometry"/>
        </mxCell>
        <mxCell id="tBb4zAf8TB9KE755ws01-74" value="1" style="text;html=1;resizable=0;points=[];autosize=1;align=left;verticalAlign=top;spacingTop=-4;" vertex="1" parent="1">
          <mxGeometry x="1585" y="728.5" width="20" height="20" as="geometry"/>
        </mxCell>
        <mxCell id="tBb4zAf8TB9KE755ws01-75" value="1..*" style="text;html=1;resizable=0;points=[];autosize=1;align=left;verticalAlign=top;spacingTop=-4;" vertex="1" parent="1">
          <mxGeometry x="2156" y="1197.5" width="28" height="14" as="geometry"/>
        </mxCell>
        <mxCell id="tBb4zAf8TB9KE755ws01-76" value="1..*" style="text;html=1;resizable=0;points=[];autosize=1;align=left;verticalAlign=top;spacingTop=-4;" vertex="1" parent="1">
          <mxGeometry x="2211" y="1197.5" width="28" height="14" as="geometry"/>
        </mxCell>
        <mxCell id="tBb4zAf8TB9KE755ws01-77" value="3..5" style="text;html=1;resizable=0;points=[];autosize=1;align=left;verticalAlign=top;spacingTop=-4;" vertex="1" parent="1">
          <mxGeometry x="2436.5" y="1239" width="30" height="14" as="geometry"/>
        </mxCell>
      </root>
    </mxGraphModel>
  </diagram>
</mxfile>
